<svg xmlns="http://www.w3.org/2000/svg" width="20" height="20" viewBox="0 0 20 20">
  <path id="dashboard-02" d="M24.156,6H7.844A1.847,1.847,0,0,0,6,7.844V24.156A1.847,1.847,0,0,0,7.844,26H24.156A1.847,1.847,0,0,0,26,24.156V7.844A1.847,1.847,0,0,0,24.156,6Zm.574,1.844v4.221H13.172V7.27H24.156A.575.575,0,0,1,24.73,7.844ZM7.27,24.156V7.844a.575.575,0,0,1,.574-.574H11.9V24.73H7.844A.575.575,0,0,1,7.27,24.156Zm16.885.574H13.172V13.336H24.73v10.82A.575.575,0,0,1,24.156,24.73Z" transform="translate(-6 -6)" fill="#00bc5c"/>
</svg>
